#!OML:ASF I:\Actors\actors\Patient Classification 2\Patient 1\Session 1\actor1.ASF
:FULLY-SPECIFIED
:DEGREES
460
root -0.551696 18.7016 5.84535 2.72901 -2.80255 -1.64235
lowerback 1.57962 2.11745 -2.46318
upperback -2.46483 2.80085 1.65338
thorax -3.62699 1.48802 2.94922
lowerneck -16.7339 -2.55609 -2.66682
upperneck 34.8016 -3.56397 1.71061
head 14.991 -1.62311 0.557716
rclavicle -2.40219e-014 1.6201e-014
rhumerus -32.2896 25.8744 -95.0555
rradius 104.341
rwrist -71.612
rhand -10.466 -67.2476
rfingers 7.12502
rthumb 15.5349 -263.356
lclavicle -2.40219e-014 1.6201e-014
lhumerus -44.2748 -30.0121 102.8
lradius 108.744
lwrist 30.9695
lhand -15.5702 -30.8075
lfingers 7.12502
lthumb 10.6148 -1.09555
rfemur 0 0 0
rtibia 0
rfoot 0 0
rtoes 0
lfemur -4.33747 -7.62868 -13.2813
ltibia 21.313
lfoot -24.3879 15.9164
ltoes -54.1109
461
root -0.550686 18.7011 5.84298 2.71408 -2.79 -1.66027
lowerback 1.57556 2.11898 -2.42928
upperback -2.45669 2.80454 1.66883
thorax -3.61558 1.48893 2.9463
lowerneck -16.8325 -2.54683 -2.6321
upperneck 34.8973 -3.54437 1.66366
head 15.0565 -1.61539 0.534458
rclavicle -1.58282e-014 -9.24349e-015
rhumerus -31.6655 24.5345 -94.2903
rradius 103.884
rwrist -72.1016
rhand -11.0381 -67.4156
rfingers 7.12502
rthumb 14.9838 -263.147
lclavicle -1.58282e-014 -9.24349e-015
lhumerus -44.2913 -30.0314 102.716
lradius 108.815
lwrist 31.0287
lhand -15.5663 -30.6926
lfingers 7.12502
lthumb 10.6185 -0.980884
rfemur 0 0 0
rtibia 0
rfoot 0 0
rtoes 0
lfemur -4.33641 -7.66631 -13.2598
ltibia 21.3182
lfoot -24.4392 15.873
ltoes -53.9401
462
root -0.550611 18.7005 5.84152 2.67711 -2.80064 -1.64816
lowerback 1.56222 2.11279 -2.46534
upperback -2.43644 2.79604 1.69231
thorax -3.58955 1.48543 2.99218
lowerneck -16.9137 -2.5261 -2.57224
upperneck 34.9446 -3.49965 1.57426
head 15.0927 -1.60021 0.493593
rclavicle -1.63718e-014 -1.15295e-014
rhumerus -31.0647 23.3348 -93.4832
rradius 103.38
rwrist -72.1566
rhand -10.482 -67.8582
rfingers 7.12502
rthumb 15.5195 -262.745
lclavicle -1.63718e-014 -1.15295e-014
lhumerus -44.2888 -29.9947 102.644
lradius 108.833
lwrist 31.0613
lhand -15.5245 -30.6127
lfingers 7.12502
lthumb 10.6588 -0.903053
rfemur 0 0 0
rtibia 0
rfoot 0 0
rtoes 0
lfemur -4.30009 -7.60975 -13.2744
ltibia 21.3175
lfoot -24.4174 15.8434
ltoes -53.9924
463
root -0.551518 18.7001 5.84083 2.64049 -2.85856 -1.63341
lowerback 1.53678 2.12575 -2.52691
upperback -2.42566 2.81279 1.72181
thorax -3.57001 1.49552 3.05754
lowerneck -16.8965 -2.5253 -2.51321
upperneck 34.929 -3.46691 1.43578
head 15.0753 -1.5984 0.431371
rclavicle -1.46479e-014 8.34896e-015
rhumerus -30.4858 22.1709 -92.6473
rradius 102.85
rwrist -71.896
rhand -9.70648 -68.8703
rfingers 7.12502
rthumb 16.2663 -261.792
lclavicle -1.46479e-014 8.34896e-015
lhumerus -44.4023 -29.9417 102.625
lradius 108.867
lwrist 31.0577
lhand -15.4923 -30.6545
lfingers 7.12502
lthumb 10.6899 -0.946406
rfemur 0 0 0
rtibia 0
rfoot 0 0
rtoes 0
lfemur -4.23456 -7.58191 -13.3021
ltibia 21.3014
lfoot -24.4142 15.8421
ltoes -53.9926
464
root -0.551707 18.7 5.83991 2.62164 -2.90017 -1.63477
lowerback 1.49492 2.1421 -2.56301
upperback -2.41317 2.83533 1.75519
thorax -3.5388 1.5077 3.11299
lowerneck -16.8728 -2.54073 -2.46542
upperneck 34.8908 -3.44161 1.26409
head 15.0456 -1.60608 0.356106
rclavicle -6.34869e-015 -1.31198e-014
rhumerus -29.9409 21.0902 -91.8196
rradius 102.406
rwrist -72.0528
rhand -10.8391 -69.5267
rfingers 7.12502
rthumb 15.1755 -261.05
lclavicle -6.34869e-015 -1.31198e-014
lhumerus -44.5255 -29.9088 102.614
lradius 108.892
lwrist 31.0469
lhand -15.4484 -30.7789
lfingers 7.12502
lthumb 10.7323 -1.07307
rfemur 0 0 0
rtibia 0
rfoot 0 0
rtoes 0
lfemur -4.18693 -7.66308 -13.31
ltibia 21.2796
lfoot -24.5043 15.8373
ltoes -53.7608
465
root -0.550484 18.7001 5.83847 2.61341 -2.91453 -1.59724
lowerback 1.46516 2.15103 -2.61153
upperback -2.40301 2.84655 1.76254
thorax -3.51525 1.51425 3.14859
lowerneck -16.9595 -2.56502 -2.46635
upperneck 34.9375 -3.4479 1.18673
head 15.0863 -1.61901 0.32156
rclavicle -1.93939e-014 8.34896e-015
rhumerus -29.428 20.0752 -91.0253
rradius 101.998
rwrist -72.5866
rhand -12.1585 -69.7687
rfingers 7.12502
rthumb 13.9043 -260.716
lclavicle -1.93939e-014 8.34896e-015
lhumerus -44.574 -29.8767 102.575
lradius 108.896
lwrist 30.9913
lhand -15.3375 -30.8305
lfingers 7.12502
lthumb 10.8392 -1.13022
rfemur 0 0 0
rtibia 0
rfoot 0 0
rtoes 0
lfemur -4.17859 -7.69861 -13.3563
ltibia 21.279
lfoot -24.5601 15.8397
ltoes -53.665
466
root -0.548229 18.7 5.83681 2.62224 -2.89186 -1.55595
lowerback 1.42429 2.13983 -2.63089
upperback -2.4063 2.83125 1.74534
thorax -3.49447 1.50662 3.14394
lowerneck -17.0196 -2.56676 -2.42562
upperneck 34.9822 -3.44997 1.1481
head 15.1195 -1.61932 0.296981
rclavicle 1.07468e-014 2.3059e-014
rhumerus -28.8909 19.0395 -90.2281
rradius 101.525
rwrist -72.9425
rhand -13.1777 -70.0836
rfingers 7.12502
rthumb 12.9219 -260.336
lclavicle 1.07468e-014 2.3059e-014
lhumerus -44.6517 -29.8319 102.494
lradius 108.967
lwrist 30.9086
lhand -15.2104 -30.7708
lfingers 7.12502
lthumb 10.9618 -1.07695
rfemur 0 0 0
rtibia 0
rfoot 0 0
rtoes 0
lfemur -4.23584 -7.63336 -13.3933
ltibia 21.3285
lfoot -24.5327 15.7535
ltoes -53.662
467
root -0.53672 18.7014 5.82971 2.68553 -2.94496 -1.59123
lowerback 1.416 2.15259 -2.42376
upperback -2.45881 2.85354 1.70331
thorax -3.53269 1.51279 2.98234
lowerneck -16.9183 -2.5555 -2.36317
upperneck 34.9362 -3.45173 1.13624
head 15.0722 -1.61446 0.282293
rclavicle 1.57972e-014 2.80286e-014
rhumerus -28.3698 17.9311 -89.4108
rradius 100.99
rwrist -72.9957
rhand -10.4236 -66.6044
rfingers 7.12502
rthumb 15.5757 -264.003
lclavicle 1.57972e-014 2.80286e-014
lhumerus -44.7379 -29.813 102.392
lradius 109.038
lwrist 30.8861
lhand -15.206 -30.7438
lfingers 7.12502
lthumb 10.966 -1.05025
rfemur 0 0 0
rtibia 0
rfoot 0 0
rtoes 0
lfemur -4.34111 -7.67192 -13.3985
ltibia 21.3444
lfoot -24.5332 15.8475
ltoes -53.6331
468
root -0.508679 18.7048 5.8125 2.81744 -3.2573 -1.64779
lowerback 1.53345 2.26838 -1.95873
upperback -2.57523 3.0186 1.61066
thorax -3.70071 1.58418 2.61024
lowerneck -16.8363 -2.58513 -2.38796
upperneck 34.9189 -3.50196 1.16937
head 15.0476 -1.63515 0.292696
rclavicle -1.74185e-014 1.31198e-014
rhumerus -27.9209 16.7774 -88.5838
rradius 100.453
rwrist -72.8546
rhand -9.07142 -65.6923
rfingers 7.12502
rthumb 16.8777 -265.021
lclavicle -1.74185e-014 1.31198e-014
lhumerus -44.7995 -29.8257 102.35
lradius 109.079
lwrist 30.9076
lhand -15.2997 -30.766
lfingers 7.12502
lthumb 10.8757 -1.06759
rfemur 0 0 0
rtibia 0
rfoot 0 0
rtoes 0
lfemur -4.49404 -8.01731 -13.5144
ltibia 21.3594
lfoot -24.7736 16.4242
ltoes -53.5171
469
root -0.533767 18.7003 5.82453 2.56546 -2.94487 -1.61146
lowerback 1.53316 2.18542 -2.3804
upperback -2.46625 2.89655 1.69675
thorax -3.60707 1.53397 2.94429
lowerneck -16.8676 -2.63991 -2.42593
upperneck 34.9248 -3.56727 1.16009
head 15.0601 -1.66894 0.28338
rclavicle -7.87684e-015 1.55052e-014
rhumerus -27.4065 15.6252 -87.7008
rradius 99.9097
rwrist -72.5755
rhand -8.83241 -65.9408
rfingers 7.12502
rthumb 17.1078 -264.792
lclavicle -7.87684e-015 1.55052e-014
lhumerus -44.7986 -29.86 102.315
lradius 109.1
lwrist 30.8821
lhand -15.3295 -30.7921
lfingers 7.12502
lthumb 10.8469 -1.09217
rfemur 0 0 0
rtibia 0
rfoot 0 0
rtoes 0
lfemur -4.2221 -7.76426 -13.4062
ltibia 21.3688
lfoot -24.5864 15.8719
ltoes -53.6575
470
root -0.538014 18.6994 5.82516 2.48854 -2.78345 -1.5301
lowerback 1.51512 2.15037 -2.54907
upperback -2.41509 2.84476 1.70344
thorax -3.54935 1.51134 3.05032
lowerneck -16.8896 -2.6699 -2.43791
upperneck 34.882 -3.58958 1.11555
head 15.0447 -1.68625 0.262737
rclavicle -3.26131e-014 -1.55052e-014
rhumerus -26.7419 14.5216 -86.7407
rradius 99.2521
rwrist -72.3501
rhand -8.97783 -66.2029
rfingers 7.12502
rthumb 16.9678 -264.518
lclavicle -3.26131e-014 -1.55052e-014
lhumerus -44.683 -29.8585 102.236
lradius 109.069
lwrist 30.8555
lhand -15.2177 -30.6998
lfingers 7.12502
lthumb 10.9547 -1.00556
rfemur 0 0 0
rtibia 0
rfoot 0 0
rtoes 0
lfemur -4.17197 -7.678 -13.4473
ltibia 21.3656
lfoot -24.4727 15.6575
ltoes -53.7094
471
root -0.531601 18.7005 5.82129 2.48711 -2.68112 -1.50826
lowerback 1.504 2.11966 -2.5072
upperback -2.41823 2.80513 1.69991
thorax -3.541 1.49032 3.02561
lowerneck -16.8773 -2.67006 -2.50615
upperneck 34.8697 -3.56918 1.12433
head 15.0376 -1.68555 0.282158
rclavicle 3.6713e-015 4.96962e-015
rhumerus -26.0877 13.536 -85.7764
rradius 98.5055
rwrist -72.2532
rhand -8.81592 -66.3144
rfingers 7.12502
rthumb 17.1236 -264.42
lclavicle 3.6713e-015 4.96962e-015
lhumerus -44.6516 -29.7641 102.193
lradius 109.077
lwrist 30.8884
lhand -15.0643 -30.4734
lfingers 7.12502
lthumb 11.1027 -0.787112
rfemur 0 0 0
rtibia 0
rfoot 0 0
rtoes 0
lfemur -4.19331 -7.704 -13.483
ltibia 21.3155
lfoot -24.319 15.6647
ltoes -53.8051
472
root -0.528267 18.7008 5.81868 2.4877 -2.64858 -1.53311
lowerback 1.48257 2.10686 -2.49626
upperback -2.43146 2.78992 1.73468
thorax -3.54278 1.48323 3.05678
lowerneck -16.8854 -2.6729 -2.62181
upperneck 34.912 -3.54574 1.15527
head 15.0629 -1.68641 0.319197
rclavicle 3.13086e-014 1.25234e-014
rhumerus -25.4869 12.6466 -84.788
rradius 97.8311
rwrist -72.3028
rhand -8.39995 -66.4433
rfingers 7.12502
rthumb 17.524 -264.326
lclavicle 3.13086e-014 1.25234e-014
lhumerus -44.7927 -29.6558 102.208
lradius 109.173
lwrist 30.9121
lhand -15.0407 -30.4502
lfingers 7.12502
lthumb 11.1255 -0.765095
rfemur 0 0 0
rtibia 0
rfoot 0 0
rtoes 0
lfemur -4.2131 -7.71787 -13.462
ltibia 21.309
lfoot -24.2682 15.6641
ltoes -53.8229
473
root -0.527439 18.7005 5.81667 2.47976 -2.68085 -1.53802
lowerback 1.45518 2.12676 -2.54691
upperback -2.43304 2.81641 1.7641
thorax -3.53515 1.49823 3.11527
lowerneck -16.9029 -2.69288 -2.66262
upperneck 34.9479 -3.54966 1.12273
head 15.0844 -1.69782 0.311686
rclavicle -1.80149e-015 1.2921e-014
rhumerus -25.0405 11.4878 -83.9089
rradius 97.4301
rwrist -72.2366
rhand -8.99538 -66.8357
rfingers 7.12502
rthumb 16.9509 -263.884
lclavicle -1.80149e-015 1.2921e-014
lhumerus -44.9306 -29.604 102.201
lradius 109.293
lwrist 30.9017
lhand -15.0643 -30.5494
lfingers 7.12502
lthumb 11.1028 -0.863098
rfemur 0 0 0
rtibia 0
rfoot 0 0
rtoes 0
lfemur -4.21346 -7.63368 -13.4548
ltibia 21.3191
lfoot -24.2234 15.6196
ltoes -53.8704
474
root -0.525096 18.7001 5.81493 2.46827 -2.70406 -1.5371
lowerback 1.43731 2.1431 -2.54444
upperback -2.43579 2.83856 1.76075
thorax -3.52926 1.50912 3.10989
lowerneck -16.9162 -2.70732 -2.6274
upperneck 34.9774 -3.56042 1.06044
head 15.0993 -1.70629 0.277298
rclavicle 4.63168e-014 8.74653e-015
rhumerus -24.5904 10.3389 -83.0426
rradius 96.9337
rwrist -72.1177
rhand -10.4799 -67.0939
rfingers 7.12502
rthumb 15.5215 -263.509
lclavicle 4.63168e-014 8.74653e-015
lhumerus -44.9712 -29.5324 102.134
lradius 109.369
lwrist 30.8716
lhand -14.97 -30.4976
lfingers 7.12502
lthumb 11.1937 -0.816248
rfemur 0 0 0
rtibia 0
rfoot 0 0
rtoes 0
lfemur -4.203 -7.60169 -13.4671
ltibia 21.3211
lfoot -24.1785 15.6299
ltoes -53.9637
